<?xml version="1.0" encoding="UTF-8"?>
<!-- Simple favicon: green circle with white chat bubble, 64x64 -->
<svg xmlns="http://www.w3.org/2000/svg" width="64" height="64" viewBox="0 0 64 64" role="img" aria-label="WhatsApp mock favicon">
  <title>WhatsApp Mock</title>
  <rect width="64" height="64" rx="12" fill="#25D366" />
  <g transform="translate(8 10)">
    <!-- chat bubble -->
    <path d="M24 2C13.5066 2 5.5 9.5066 5.5 18.5C5.5 22.6403 7.09766 26.4336 9.85742 29.2725L8.34375 36.3438C8.21436 36.9314 8.64045 37.5 9.23926 37.5C9.45508 37.5 9.67676 37.4385 9.87109 37.3184L16.1904 33.2861C18.5794 34.1959 21.2413 34.75 24 34.75C34.4934 34.75 42.5 27.2434 42.5 18.25C42.5 9.25658 34.4934 2 24 2Z" fill="#FFFFFF"/>
    <!-- small tail accent to make it look like WhatsApp bubble -->
    <path d="M12 30L9 36L16 33" fill="#FFFFFF" opacity="0.95"/>
    <!-- phone icon inside bubble (simplified) -->
    <g transform="translate(13 8) scale(0.9)">
      <rect x="1" y="1" width="10" height="14" rx="2" fill="#25D366" />
      <path d="M4 5c1-1 2-1 3 0s2 1 2 2-1 2-2 3-2 1-3 0-2-2-2-3 0-2 0-2z" fill="#fff" opacity="0.95"/>
    </g>
  </g>
</svg>
